HIERARCHY
ROOT joint_Root
{
	OFFSET 0.0 0.0 0.0
	CHANNELS 6 Xposition Yposition Zposition Zrotation Xrotation Yrotation 
	JOINT Hips
	{
		OFFSET 4.5925 91.4895 -427.239
		CHANNELS 6 Xposition Yposition Zposition Zrotation Xrotation Yrotation 
		JOINT Spine
		{
			OFFSET 15.7357 0.0 0.0
			CHANNELS 6 Xposition Yposition Zposition Zrotation Xrotation Yrotation 
			JOINT Chest
			{
				OFFSET 8.98455 -0.406207 0.0
				CHANNELS 6 Xposition Yposition Zposition Zrotation Xrotation Yrotation 
				JOINT Neck
				{
					OFFSET 16.3773 0.0 0.0
					CHANNELS 6 Xposition Yposition Zposition Zrotation Xrotation Yrotation 
					JOINT Head
					{
						OFFSET 6.45672 0.0 0.0
						CHANNELS 6 Xposition Yposition Zposition Zrotation Xrotation Yrotation 
						End Site
						{
							OFFSET 0.0 0.0 0.0
						}
					}
				}
				JOINT Shoulder_L
				{
					OFFSET 12.9942 -0.242716 4.98039
					CHANNELS 6 Xposition Yposition Zposition Zrotation Xrotation Yrotation 
					JOINT UpperArm_L
					{
						OFFSET 5.34809 0.0 0.0
						CHANNELS 6 Xposition Yposition Zposition Zrotation Xrotation Yrotation 
						JOINT LowerArm_L
						{
							OFFSET 24.3286 1.87007e-05 0.0
							CHANNELS 6 Xposition Yposition Zposition Zrotation Xrotation Yrotation 
							JOINT Hand_L
							{
								OFFSET 22.2916 0.0 0.0
								CHANNELS 6 Xposition Yposition Zposition Zrotation Xrotation Yrotation 
								End Site
								{
									OFFSET 0.0 0.0 0.0
								}
							}
						}
					}
				}
				JOINT Shoulder_R
				{
					OFFSET 12.9945 -0.242716 -4.98039
					CHANNELS 6 Xposition Yposition Zposition Zrotation Xrotation Yrotation 
					JOINT UpperArm_R
					{
						OFFSET -5.34813 0.0 0.0
						CHANNELS 6 Xposition Yposition Zposition Zrotation Xrotation Yrotation 
						JOINT LowerArm_R
						{
							OFFSET -24.3289 0.000322201 0.0
							CHANNELS 6 Xposition Yposition Zposition Zrotation Xrotation Yrotation 
							JOINT Hand_R
							{
								OFFSET -22.2915 -0.000108084 0.0
								CHANNELS 6 Xposition Yposition Zposition Zrotation Xrotation Yrotation 
								End Site
								{
									OFFSET 0.0 0.0 0.0
								}
							}
						}
					}
				}
			}
		}
		JOINT UpperLeg_L
		{
			OFFSET -2.19248 -6.46944 0.0
			CHANNELS 6 Xposition Yposition Zposition Zrotation Xrotation Yrotation 
			JOINT LowerLeg_L
			{
				OFFSET 39.0811 0.0 -1.23785e-05
				CHANNELS 6 Xposition Yposition Zposition Zrotation Xrotation Yrotation 
				JOINT Foot_L
				{
					OFFSET 40.9854 0.0 -1.26872e-05
					CHANNELS 6 Xposition Yposition Zposition Zrotation Xrotation Yrotation 
					JOINT Toes_L
					{
						OFFSET 11.7543 0.0 0.0
						CHANNELS 6 Xposition Yposition Zposition Zrotation Xrotation Yrotation 
						End Site
						{
							OFFSET 0.0 0.0 0.0
						}
					}
				}
			}
		}
		JOINT UpperLeg_R
		{
			OFFSET -2.19251 6.46944 0.0
			CHANNELS 6 Xposition Yposition Zposition Zrotation Xrotation Yrotation 
			JOINT LowerLeg_R
			{
				OFFSET -39.0811 -0.00228153 -0.0401928
				CHANNELS 6 Xposition Yposition Zposition Zrotation Xrotation Yrotation 
				JOINT Foot_R
				{
					OFFSET -40.9854 0.0 0.0
					CHANNELS 6 Xposition Yposition Zposition Zrotation Xrotation Yrotation 
					JOINT Toes_R
					{
						OFFSET -11.7543 0.0 0.0
						CHANNELS 6 Xposition Yposition Zposition Zrotation Xrotation Yrotation 
						End Site
						{
							OFFSET 0.0 0.0 0.0
						}
					}
				}
			}
		}
	}
}
MOTION
Frames:	4
Frame Time:	0.0333333
0.000000 0.000000 0.000000 0.000000 0.000000 -0.000000 0.507798 84.229300 0.217619 89.187900 -3.699040 11.242400 15.735700 0.000005 -0.000001 101.723000 80.307100 -102.862000 8.984550 -0.406207 -0.000000 11.274100 3.873470 -2.659760 16.377300 -0.000001 -0.000001 -1.180300 -5.298260 1.992100 6.456720 -0.000001 -0.000000 -1.610450 -10.177900 8.700250 12.994200 -0.242716 4.980390 -92.530300 6.715830 -69.299900 5.348090 -0.000007 -0.000001 -72.029700 14.825100 2.595890 24.328600 0.000019 0.000005 1.214410 2.661920 -24.523000 22.291600 -0.000001 0.000005 17.584400 5.202400 2.658670 12.994500 -0.242716 -4.980390 88.694600 8.761340 -81.491100 -5.348130 -0.000001 -0.000004 -62.393100 31.676400 -10.647300 -24.328900 0.000322 -0.000009 -1.381820 -2.353570 -30.416900 -22.291500 -0.000108 -0.000004 18.623900 5.455130 -4.823860 -2.192480 -6.469440 -0.000000 -173.471000 -13.829400 -10.329000 39.081100 -0.000007 -0.000012 -0.443960 0.300129 55.941300 40.985400 -0.000006 -0.000013 1.603850 5.354790 -83.925900 11.754300 -0.000000 0.000003 -0.000248 -0.002219 -16.660700 -2.192510 6.469440 -0.000001 176.206000 11.875200 168.902000 -39.081100 -0.002282 -0.040193 0.075589 -0.047746 56.584900 -40.985400 0.000008 0.000006 5.410750 3.434520 -82.881900 -11.754300 -0.000006 -0.000006 -1.219160 -1.510090 -17.230300
0.000000 0.000000 0.000000 0.000000 0.000000 -0.000000 1.628910 85.700200 1.002840 90.107200 -7.432630 10.676100 15.735700 0.000005 -0.000001 101.400000 81.228200 -101.847000 8.984550 -0.406207 -0.000000 9.457780 3.441310 -1.177330 16.377300 -0.000001 -0.000001 -0.528375 -4.526710 2.206410 6.456720 -0.000001 -0.000000 -0.357829 -8.323000 7.688310 12.994200 -0.242716 4.980390 -92.225900 5.738670 -68.756100 5.348090 -0.000007 -0.000001 -71.465200 12.796800 3.488250 24.328600 0.000019 0.000005 0.814230 1.815850 -24.146000 22.291600 -0.000001 0.000005 14.736800 5.227090 2.002190 12.994500 -0.242716 -4.980390 88.625000 8.492540 -80.767900 -5.348130 -0.000001 -0.000004 -63.323500 30.177300 -10.531900 -24.328900 0.000322 -0.000009 -1.388730 -2.557670 -28.491800 -22.291500 -0.000108 -0.000004 17.956900 5.440640 -4.306810 -2.192480 -6.469440 -0.000000 -175.287000 -15.443000 -7.301640 39.081100 -0.000007 -0.000012 -0.425008 0.349503 50.569000 40.985400 -0.000006 -0.000013 1.062210 2.883470 -82.209300 11.754300 -0.000000 0.000003 -0.000246 -0.002203 -16.660200 -2.192510 6.469440 -0.000001 174.769000 9.419720 170.240000 -39.081100 -0.002282 -0.040193 0.050734 -0.036704 52.303500 -40.985400 0.000008 0.000006 5.054470 5.613160 -80.546900 -11.754300 -0.000006 -0.000006 -1.275510 -1.573880 -17.459800
0.000000 0.000000 0.000000 0.000000 0.000000 -0.000000 2.470460 87.455300 1.523190 90.524500 -10.415200 8.875930 15.735700 0.000005 -0.000001 101.854000 82.698900 -101.311000 8.984550 -0.406207 -0.000000 6.517700 2.984520 0.915035 16.377300 -0.000001 -0.000001 1.270760 -3.542530 1.920410 6.456720 -0.000001 -0.000000 0.589373 -6.428490 5.718480 12.994200 -0.242716 4.980390 -91.698000 4.138410 -67.665300 5.348090 -0.000007 -0.000001 -65.534600 8.309610 -1.580260 24.328600 0.000019 0.000005 5.900440 12.263800 -25.933100 22.291600 -0.000001 0.000005 9.620370 5.262990 1.088720 12.994500 -0.242716 -4.980390 88.613100 7.801710 -79.887100 -5.348130 -0.000001 -0.000004 -65.321300 27.024600 -8.422790 -24.328900 0.000322 -0.000009 -0.836059 -1.590620 -27.701400 -22.291500 -0.000108 -0.000004 17.021500 5.440540 -4.306780 -2.192480 -6.469440 -0.000000 -176.974000 -16.410300 -5.443030 39.081100 -0.000007 -0.000012 -0.352377 0.366481 43.876700 40.985400 -0.000006 -0.000013 0.586890 0.664492 -79.434700 11.754300 -0.000000 0.000003 -0.000247 -0.002212 -16.660500 -2.192510 6.469440 -0.000001 174.002000 8.531990 170.783000 -39.081100 -0.002282 -0.040193 0.032887 -0.027904 46.716500 -40.985400 0.000008 0.000006 4.864480 8.072830 -77.077600 -11.754300 -0.000006 -0.000006 -1.245070 -1.514940 -18.073700
0.000000 0.000000 0.000000 0.000000 0.000000 -0.000000 2.903670 88.948100 1.866070 90.507300 -12.028300 7.340370 15.735700 0.000005 -0.000001 101.758000 84.083600 -100.154000 8.984550 -0.406207 -0.000000 3.790320 2.352330 3.125800 16.377300 -0.000001 -0.000001 3.576080 -2.894380 1.433030 6.456720 -0.000001 -0.000000 1.420120 -4.658500 3.821060 12.994200 -0.242716 4.980390 -91.036900 2.509010 -67.540400 5.348090 -0.000007 -0.000001 -57.165900 -2.130600 -10.158900 24.328600 0.000019 0.000005 7.364630 13.202800 -29.512000 22.291600 -0.000001 0.000005 9.524210 5.250190 1.427610 12.994500 -0.242716 -4.980390 88.546000 7.177150 -78.515900 -5.348130 -0.000001 -0.000004 -66.462100 24.016900 -5.864540 -24.328900 0.000322 -0.000009 -1.278910 -2.421350 -27.833000 -22.291500 -0.000108 -0.000004 16.204500 5.450620 -4.663880 -2.192480 -6.469440 -0.000000 -177.854000 -16.633200 -3.657840 39.081100 -0.000007 -0.000012 -0.275389 0.358314 37.545300 40.985400 -0.000006 -0.000013 0.357460 -0.599398 -76.601200 11.754300 -0.000000 0.000003 -0.000217 -0.001980 -16.652100 -2.192510 6.469440 -0.000001 173.646000 9.317900 171.820000 -39.081100 -0.002282 -0.040193 0.021273 -0.020558 41.201200 -40.985400 0.000008 0.000006 4.761570 10.607300 -73.864400 -11.754300 -0.000006 -0.000006 -1.116160 -1.341790 -18.632000
